{
  "accessors": [
    {
      "bufferView": 2,
      "componentType": 5126,
      "count": 166,
      "max": [
        0.8244979977607727,
        -0.0743900015950203,
        0.47300100326538086
      ],
      "min": [
        -0.8245030045509338,
        -0.08438999950885773,
        -0.4729979932308197
      ],
      "type": "VEC3"
    },
    {
      "bufferView": 2,
      "byteOffset": 1992,
      "componentType": 5126,
      "count": 166,
      "max": [
        1.0,
        1.0,
        1.0
      ],
      "min": [
        -1.0,
        -1.0,
        -1.0
      ],
      "type": "VEC3"
    },
    {
      "bufferView": 1,
      "componentType": 5126,
      "count": 166,
      "max": [
        15.99004077911377,
        4.730009078979492
      ],
      "min": [
        -8.245024681091309,
        -4.729982852935791
      ],
      "type": "VEC2"
    },
    {
      "bufferView": 0,
      "componentType": 5125,
      "count": 432,
      "type": "SCALAR"
    },
    {
      "bufferView": 2,
      "byteOffset": 3984,
      "componentType": 5126,
      "count": 310,
      "max": [
        0.7686650156974792,
        0.011497000232338905,
        0.4880000054836273
      ],
      "min": [
        -0.7686650156974792,
        -0.06903199851512909,
        -0.5019689798355103
      ],
      "type": "VEC3"
    },
    {
      "bufferView": 2,
      "byteOffset": 7704,
      "componentType": 5126,
      "count": 310,
      "max": [
        1.0,
        1.0,
        1.0
      ],
      "min": [
        -1.0,
        -1.0,
        -1.0
      ],
      "type": "VEC3"
    },
    {
      "bufferView": 1,
      "byteOffset": 1328,
      "componentType": 5126,
      "count": 310,
      "max": [
        3.7275960445404053,
        0.34999099373817444
      ],
      "min": [
        -3.7275960445404053,
        -0.3851419985294342
      ],
      "type": "VEC2"
    },
    {
      "bufferView": 0,
      "byteOffset": 1728,
      "componentType": 5125,
      "count": 828,
      "type": "SCALAR"
    },
    {
      "bufferView": 2,
      "byteOffset": 11424,
      "componentType": 5126,
      "count": 850,
      "max": [
        0.8394970297813416,
        0.05609999969601631,
        0.08399999886751175
      ],
      "min": [
        -0.8394970297813416,
        0.003573999973013997,
        -0.507997989654541
      ],
      "type": "VEC3"
    },
    {
      "bufferView": 2,
      "byteOffset": 21624,
      "componentType": 5126,
      "count": 850,
      "max": [
        1.0,
        1.0,
        1.0
      ],
      "min": [
        -1.0,
        -1.0,
        -1.0
      ],
      "type": "VEC3"
    },
    {
      "bufferView": 1,
      "byteOffset": 3808,
      "componentType": 5126,
      "count": 850,
      "max": [
        1.0,
        1.0
      ],
      "min": [
        0.0,
        0.0
      ],
      "type": "VEC2"
    },
    {
      "bufferView": 0,
      "byteOffset": 5040,
      "componentType": 5125,
      "count": 3384,
      "type": "SCALAR"
    },
    {
      "bufferView": 2,
      "byteOffset": 31824,
      "componentType": 5126,
      "count": 24,
      "max": [
        0.7670959830284119,
        -0.06439000368118286,
        0.4465450048446655
      ],
      "min": [
        -0.767100989818573,
        -0.0743900015950203,
        -0.4465450048446655
      ],
      "type": "VEC3"
    },
    {
      "bufferView": 2,
      "byteOffset": 32112,
      "componentType": 5126,
      "count": 24,
      "max": [
        1.0,
        1.0,
        1.0
      ],
      "min": [
        -1.0,
        -1.0,
        -1.0
      ],
      "type": "VEC3"
    },
    {
      "bufferView": 1,
      "byteOffset": 10608,
      "componentType": 5126,
      "count": 24,
      "max": [
        1.0,
        1.0
      ],
      "min": [
        0.0,
        0.0
      ],
      "type": "VEC2"
    },
    {
      "bufferView": 0,
      "byteOffset": 18576,
      "componentType": 5125,
      "count": 36,
      "type": "SCALAR"
    },
    {
      "bufferView": 2,
      "byteOffset": 32400,
      "componentType": 5126,
      "count": 1800,
      "max": [
        0.8244979977607727,
        0.0033569999504834414,
        0.5080000162124634
      ],
      "min": [
        -0.8245030045509338,
        -0.0743900015950203,
        -0.4729979932308197
      ],
      "type": "VEC3"
    },
    {
      "bufferView": 2,
      "byteOffset": 54000,
      "componentType": 5126,
      "count": 1800,
      "max": [
        1.0,
        1.0,
        1.0
      ],
      "min": [
        -1.0,
        -1.0,
        -1.0
      ],
      "type": "VEC3"
    },
    {
      "bufferView": 1,
      "byteOffset": 10800,
      "componentType": 5126,
      "count": 1800,
      "max": [
        15.99004077911377,
        4.730009078979492
      ],
      "min": [
        -8.245024681091309,
        -4.729982852935791
      ],
      "type": "VEC2"
    },
    {
      "bufferView": 0,
      "byteOffset": 18720,
      "componentType": 5125,
      "count": 4968,
      "type": "SCALAR"
    },
    {
      "bufferView": 2,
      "byteOffset": 75600,
      "componentType": 5126,
      "count": 6729,
      "max": [
        0.8745009899139404,
        0.05609999969601631,
        0.5080000162124634
      ],
      "min": [
        -0.8745009899139404,
        -0.08438999950885773,
        -0.5080000162124634
      ],
      "type": "VEC3"
    },
    {
      "bufferView": 2,
      "byteOffset": 156348,
      "componentType": 5126,
      "count": 6729,
      "max": [
        1.0,
        1.0,
        1.0
      ],
      "min": [
        -1.0,
        -1.0,
        -1.0
      ],
      "type": "VEC3"
    },
    {
      "bufferView": 1,
      "byteOffset": 25200,
      "componentType": 5126,
      "count": 6729,
      "max": [
        17.49001693725586,
        8.869150161743164
      ],
      "min": [
        -16.140033721923828,
        -7.995019912719727
      ],
      "type": "VEC2"
    },
    {
      "bufferView": 0,
      "byteOffset": 38592,
      "componentType": 5125,
      "count": 18930,
      "type": "SCALAR"
    },
    {
      "bufferView": 2,
      "byteOffset": 237096,
      "componentType": 5126,
      "count": 8477,
      "max": [
        1.2082550525665283,
        0.12762700021266937,
        0.5243769884109497
      ],
      "min": [
        0.8744810223579407,
        -0.10334800183773041,
        -0.5080050230026245
      ],
      "type": "VEC3"
    },
    {
      "bufferView": 2,
      "byteOffset": 338820,
      "componentType": 5126,
      "count": 8477,
      "max": [
        1.0,
        1.0,
        1.0
      ],
      "min": [
        -1.0,
        -1.0,
        -1.0
      ],
      "type": "VEC3"
    },
    {
      "bufferView": 1,
      "byteOffset": 79032,
      "componentType": 5126,
      "count": 8477,
      "max": [
        2.45542311668396,
        4.917243003845215
      ],
      "min": [
        -3.065682888031006,
        -4.917243003845215
      ],
      "type": "VEC2"
    },
    {
      "bufferView": 0,
      "byteOffset": 114312,
      "componentType": 5125,
      "count": 8976,
      "type": "SCALAR"
    },
    {
      "bufferView": 2,
      "byteOffset": 440544,
      "componentType": 5126,
      "count": 6291,
      "max": [
        -0.8744860291481018,
        0.1277250051498413,
        0.5244830250740051
      ],
      "min": [
        -1.2082600593566895,
        -0.08429499715566635,
        -0.5078989863395691
      ],
      "type": "VEC3"
    },
    {
      "bufferView": 2,
      "byteOffset": 516036,
      "componentType": 5126,
      "count": 6291,
      "max": [
        1.0,
        1.0,
        1.0
      ],
      "min": [
        -1.0,
        -1.0,
        -1.0
      ],
      "type": "VEC3"
    },
    {
      "bufferView": 1,
      "byteOffset": 146848,
      "componentType": 5126,
      "count": 6291,
      "max": [
        3.056133985519409,
        4.879881858825684
      ],
      "min": [
        -1.9449199438095093,
        -4.917243003845215
      ],
      "type": "VEC2"
    },
    {
      "bufferView": 0,
      "byteOffset": 150216,
      "componentType": 5125,
      "count": 6744,
      "type": "SCALAR"
    },
    {
      "bufferView": 2,
      "byteOffset": 591528,
      "componentType": 5126,
      "count": 9945,
      "max": [
        1.1697759628295898,
        0.1275539994239807,
        0.5080000162124634
      ],
      "min": [
        -1.169780969619751,
        -0.15568000078201294,
        -0.5080000162124634
      ],
      "type": "VEC3"
    },
    {
      "bufferView": 2,
      "byteOffset": 710868,
      "componentType": 5126,
      "count": 9945,
      "max": [
        1.0,
        1.0,
        1.0
      ],
      "min": [
        -1.0,
        -1.0,
        -1.0
      ],
      "type": "VEC3"
    },
    {
      "bufferView": 1,
      "byteOffset": 197176,
      "componentType": 5126,
      "count": 9945,
      "max": [
        0.9586390256881714,
        2.7709250450134277
      ],
      "min": [
        -0.9586390256881714,
        -2.7709250450134277
      ],
      "type": "VEC2"
    },
    {
      "bufferView": 0,
      "byteOffset": 177192,
      "componentType": 5125,
      "count": 11292,
      "type": "SCALAR"
    },
    {
      "bufferView": 2,
      "byteOffset": 830208,
      "componentType": 5126,
      "count": 180,
      "max": [
        -0.8418459892272949,
        -0.003022999968379736,
        -0.04918000102043152
      ],
      "min": [
        -0.8502219915390015,
        -0.028170999139547348,
        -0.07432900369167328
      ],
      "type": "VEC3"
    },
    {
      "bufferView": 2,
      "byteOffset": 832368,
      "componentType": 5126,
      "count": 180,
      "max": [
        1.0,
        0.9659289121627808,
        0.9659289121627808
      ],
      "min": [
        0.0,
        -0.9659289121627808,
        -0.9659289121627808
      ],
      "type": "VEC3"
    },
    {
      "bufferView": 1,
      "byteOffset": 276736,
      "componentType": 5126,
      "count": 180,
      "max": [
        0.10021500289440155,
        0.10021600127220154
      ],
      "min": [
        -0.10021699965000153,
        -0.10021699965000153
      ],
      "type": "VEC2"
    },
    {
      "bufferView": 0,
      "byteOffset": 222360,
      "componentType": 5125,
      "count": 180,
      "type": "SCALAR"
    }
  ],
  "asset": {
    "extras": {
      "author": "rtql8d (https://sketchfab.com/rtql8d)",
      "license": "CC-BY-4.0 (http://creativecommons.org/licenses/by/4.0/)",
      "source": "https://sketchfab.com/3d-models/nintendo-switch-oled-model-9b8721e10a4f4a689fc4f72cdcee4b01",
      "title": "Nintendo Switch (OLED model)"
    },
    "generator": "Sketchfab-11.38.0",
    "version": "2.0"
  },
  "bufferViews": [
    {
      "buffer": 0,
      "byteLength": 223080,
      "name": "floatBufferViews",
      "target": 34963
    },
    {
      "buffer": 0,
      "byteLength": 278176,
      "byteOffset": 223080,
      "byteStride": 8,
      "name": "floatBufferViews",
      "target": 34962
    },
    {
      "buffer": 0,
      "byteLength": 834528,
      "byteOffset": 501256,
      "byteStride": 12,
      "name": "floatBufferViews",
      "target": 34962
    }
  ],
  "buffers": [
    {
      "byteLength": 1335784,
      "uri": "scene.bin"
    }
  ],
  "extensionsUsed": [
    "KHR_materials_transmission"
  ],
  "images": [
    {
      "uri": "textures/Plastic_-_Translucent_Matte_Gray_stand.png_baseColor.jpeg"
    },
    {
      "uri": "textures/Steel_-_Satin_screen.jpg_baseColor.jpeg"
    }
  ],
  "materials": [
    {
      "alphaMode": "BLEND",
      "doubleSided": true,
      "extensions": {
        "KHR_materials_transmission": {
          "transmissionFactor": 0.95
        }
      },
      "name": "Glass_Clear",
      "pbrMetallicRoughness": {
        "baseColorFactor": [
          0.64,
          0.64,
          0.64,
          0.25
        ],
        "metallicFactor": 0.0,
        "roughnessFactor": 0.19999999999999996
      }
    },
    {
      "doubleSided": true,
      "name": "Plastic_-_Translucent_Glossy_Gray",
      "pbrMetallicRoughness": {
        "baseColorFactor": [
          0.007380905158593538,
          0.007914633424354889,
          0.008329261933796989,
          1.0
        ],
        "metallicFactor": 0.0,
        "roughnessFactor": 0.6
      }
    },
    {
      "doubleSided": true,
      "name": "Plastic_-_Translucent_Glossy_White",
      "pbrMetallicRoughness": {
        "baseColorFactor": [
          0.0,
          0.0,
          0.0,
          1.0
        ],
        "metallicFactor": 0.0,
        "roughnessFactor": 0.8434915419926713
      }
    },
    {
      "doubleSided": true,
      "name": "Plastic_-_Translucent_Matte_Gray",
      "pbrMetallicRoughness": {
        "baseColorFactor": [
          0.019382360956935723,
          0.023153366178110403,
          0.026241221894849898,
          1.0
        ],
        "metallicFactor": 0.0,
        "roughnessFactor": 0.7
      }
    },
    {
      "doubleSided": true,
      "name": "Plastic_-_Translucent_Matte_Gray_stand.png",
      "pbrMetallicRoughness": {
        "baseColorTexture": {
          "index": 0
        },
        "metallicFactor": 0.0,
        "roughnessFactor": 0.7
      }
    },
    {
      "doubleSided": true,
      "name": "Plastic_-_Translucent_Matte_White",
      "pbrMetallicRoughness": {
        "baseColorFactor": [
          0.8227857543962833,
          0.83879901174074,
          0.8307698767746546,
          1.0
        ],
        "metallicFactor": 0.0,
        "roughnessFactor": 0.8434915419926713
      }
    },
    {
      "doubleSided": true,
      "name": "Steel_-_Satin",
      "pbrMetallicRoughness": {
        "baseColorFactor": [
          0.6028280014287267,
          0.6028280014287267,
          0.6028280014287267,
          1.0
        ],
        "metallicFactor": 0.8,
        "roughnessFactor": 0.5
      }
    },
    {
      "doubleSided": true,
      "name": "Steel_-_Satin_screen.jpg",
      "pbrMetallicRoughness": {
        "baseColorTexture": {
          "index": 1
        },
        "metallicFactor": 0.0,
        "roughnessFactor": 0.8434915419926713
      }
    }
  ],
  "meshes": [
    {
      "name": "Object_0",
      "primitives": [
        {
          "attributes": {
            "NORMAL": 1,
            "POSITION": 0,
            "TEXCOORD_0": 2
          },
          "indices": 3,
          "material": 0,
          "mode": 4
        }
      ]
    },
    {
      "name": "Object_1",
      "primitives": [
        {
          "attributes": {
            "NORMAL": 5,
            "POSITION": 4,
            "TEXCOORD_0": 6
          },
          "indices": 7,
          "material": 2,
          "mode": 4
        }
      ]
    },
    {
      "name": "Object_2",
      "primitives": [
        {
          "attributes": {
            "NORMAL": 9,
            "POSITION": 8,
            "TEXCOORD_0": 10
          },
          "indices": 11,
          "material": 4,
          "mode": 4
        }
      ]
    },
    {
      "name": "Object_3",
      "primitives": [
        {
          "attributes": {
            "NORMAL": 13,
            "POSITION": 12,
            "TEXCOORD_0": 14
          },
          "indices": 15,
          "material": 7,
          "mode": 4
        }
      ]
    },
    {
      "name": "Object_4",
      "primitives": [
        {
          "attributes": {
            "NORMAL": 17,
            "POSITION": 16,
            "TEXCOORD_0": 18
          },
          "indices": 19,
          "material": 1,
          "mode": 4
        }
      ]
    },
    {
      "name": "Object_5",
      "primitives": [
        {
          "attributes": {
            "NORMAL": 21,
            "POSITION": 20,
            "TEXCOORD_0": 22
          },
          "indices": 23,
          "material": 3,
          "mode": 4
        }
      ]
    },
    {
      "name": "Object_6",
      "primitives": [
        {
          "attributes": {
            "NORMAL": 25,
            "POSITION": 24,
            "TEXCOORD_0": 26
          },
          "indices": 27,
          "material": 5,
          "mode": 4
        }
      ]
    },
    {
      "name": "Object_7",
      "primitives": [
        {
          "attributes": {
            "NORMAL": 29,
            "POSITION": 28,
            "TEXCOORD_0": 30
          },
          "indices": 31,
          "material": 5,
          "mode": 4
        }
      ]
    },
    {
      "name": "Object_8",
      "primitives": [
        {
          "attributes": {
            "NORMAL": 33,
            "POSITION": 32,
            "TEXCOORD_0": 34
          },
          "indices": 35,
          "material": 6,
          "mode": 4
        }
      ]
    },
    {
      "name": "Object_9",
      "primitives": [
        {
          "attributes": {
            "NORMAL": 37,
            "POSITION": 36,
            "TEXCOORD_0": 38
          },
          "indices": 39,
          "material": 6,
          "mode": 4
        }
      ]
    }
  ],
  "nodes": [
    {
      "children": [
        1
      ],
      "matrix": [
        0.9882882237434387,
        0.1525862067937851,
        0.001955799991264973,
        0.0,
        0.08966107666492462,
        -0.5702610015869138,
        -0.8165557384490968,
        0.0,
        -0.12347982823848724,
        0.8071677684783937,
        -0.577263295650482,
        0.0,
        0.0022195312194526196,
        -0.007144190371036525,
        -0.020538434386253357,
        1.0
      ],
      "name": "Sketchfab_model"
    },
    {
      "children": [
        2,
        3,
        4,
        5,
        6,
        7,
        8,
        9,
        10,
        11
      ],
      "name": "Nintendo_Switch_OLED.obj.cleaner.materialmerger.gles"
    },
    {
      "mesh": 0,
      "name": "Object_2"
    },
    {
      "mesh": 1,
      "name": "Object_3"
    },
    {
      "mesh": 2,
      "name": "Object_4"
    },
    {
      "mesh": 3,
      "name": "Object_5"
    },
    {
      "mesh": 4,
      "name": "Object_6"
    },
    {
      "mesh": 5,
      "name": "Object_7"
    },
    {
      "mesh": 6,
      "name": "Object_8"
    },
    {
      "mesh": 7,
      "name": "Object_9"
    },
    {
      "mesh": 8,
      "name": "Object_10"
    },
    {
      "mesh": 9,
      "name": "Object_11"
    }
  ],
  "samplers": [
    {
      "magFilter": 9729,
      "minFilter": 9987,
      "wrapS": 10497,
      "wrapT": 10497
    }
  ],
  "scene": 0,
  "scenes": [
    {
      "name": "Sketchfab_Scene",
      "nodes": [
        0
      ]
    }
  ],
  "textures": [
    {
      "sampler": 0,
      "source": 0
    },
    {
      "sampler": 0,
      "source": 1
    }
  ]
}
