{
  "accessors": [
    {
      "bufferView": 2,
      "componentType": 5126,
      "count": 16085,
      "max": [
        61.055511474609375,
        53.514919281005859,
        4.0289273262023926
      ],
      "min": [
        -61.252063751220703,
        -0.022243499755859375,
        -4.4366540908813477
      ],
      "type": "VEC3"
    },
    {
      "bufferView": 2,
      "byteOffset": 193020,
      "componentType": 5126,
      "count": 16085,
      "max": [
        0.99999904632568359,
        0.99999904632568359,
        1
      ],
      "min": [
        -0.99999910593032837,
        -0.99999904632568359,
        -1
      ],
      "type": "VEC3"
    },
    {
      "bufferView": 3,
      "componentType": 5126,
      "count": 16085,
      "max": [
        0.9999929666519165,
        0.99986320734024048,
        1,
        1
      ],
      "min": [
        -0.99999850988388062,
        -0.99996864795684814,
        -1,
        -1
      ],
      "type": "VEC4"
    },
    {
      "bufferView": 1,
      "componentType": 5126,
      "count": 16085,
      "max": [
        0.99762439727783203,
        0.99421364068984985
      ],
      "min": [
        0.0039047407917678356,
        0.0024607500527054071
      ],
      "type": "VEC2"
    },
    {
      "bufferView": 0,
      "componentType": 5125,
      "count": 60384,
      "max": [
        16084
      ],
      "min": [
        0
      ],
      "type": "SCALAR"
    }
  ],
  "asset": {
    "extras": {
      "author": "Oliver Triplett (https://sketchfab.com/OliverTriplett)",
      "license": "CC-BY-4.0 (http://creativecommons.org/licenses/by/4.0/)",
      "source": "https://sketchfab.com/3d-models/electric-guitar-jackson-soloist-sl2q-1935508eb3db4bd8a962e9325f4d49fb",
      "title": "Electric Guitar (Jackson Soloist SL2Q)"
    },
    "generator": "Sketchfab-10.30.0",
    "version": "2.0"
  },
  "bufferViews": [
    {
      "buffer": 0,
      "byteLength": 241536,
      "byteOffset": 0,
      "name": "floatBufferViews",
      "target": 34963
    },
    {
      "buffer": 0,
      "byteLength": 128680,
      "byteOffset": 241536,
      "byteStride": 8,
      "name": "floatBufferViews",
      "target": 34962
    },
    {
      "buffer": 0,
      "byteLength": 386040,
      "byteOffset": 370216,
      "byteStride": 12,
      "name": "floatBufferViews",
      "target": 34962
    },
    {
      "buffer": 0,
      "byteLength": 257360,
      "byteOffset": 756256,
      "byteStride": 16,
      "name": "floatBufferViews",
      "target": 34962
    }
  ],
  "buffers": [
    {
      "byteLength": 1013616,
      "uri": "scene.bin"
    }
  ],
  "images": [
    {
      "uri": "textures/Mat_Soloist_SL2Q_baseColor.png"
    },
    {
      "uri": "textures/Mat_Soloist_SL2Q_metallicRoughness.png"
    },
    {
      "uri": "textures/Mat_Soloist_SL2Q_normal.png"
    }
  ],
  "materials": [
    {
      "doubleSided": true,
      "name": "Mat_Soloist_SL2Q",
      "normalTexture": {
        "index": 2,
        "scale": 1,
        "texCoord": 0
      },
      "occlusionTexture": {
        "index": 1,
        "strength": 1,
        "texCoord": 0
      },
      "pbrMetallicRoughness": {
        "baseColorFactor": [
          1,
          1,
          1,
          1
        ],
        "baseColorTexture": {
          "index": 0,
          "texCoord": 0
        },
        "metallicFactor": 1,
        "metallicRoughnessTexture": {
          "index": 1,
          "texCoord": 0
        },
        "roughnessFactor": 1
      }
    }
  ],
  "meshes": [
    {
      "name": "Soloist_SL2Q_Body_low_Mat_Soloist_SL2Q_0",
      "primitives": [
        {
          "attributes": {
            "NORMAL": 1,
            "POSITION": 0,
            "TANGENT": 2,
            "TEXCOORD_0": 3
          },
          "indices": 4,
          "material": 0,
          "mode": 4
        }
      ]
    }
  ],
  "nodes": [
    {
      "children": [
        1
      ],
      "name": "RootNode (gltf orientation matrix)",
      "rotation": [
        -0.70710678118654746,
        -0,
        -0,
        0.70710678118654757
      ]
    },
    {
      "children": [
        2
      ],
      "matrix": [
        0.03409576416015625,
        0,
        0,
        0,
        0,
        0.03409576416015625,
        0,
        0,
        0,
        0,
        0.03409576416015625,
        0,
        0,
        0,
        0,
        1
      ],
      "name": "RootNode (model correction matrix)"
    },
    {
      "children": [
        3
      ],
      "matrix": [
        1,
        0,
        0,
        0,
        0,
        0,
        1,
        0,
        0,
        -1,
        0,
        0,
        0,
        0,
        0,
        1
      ],
      "name": "Soloist_SL2Q_low_1.fbx"
    },
    {
      "children": [
        4
      ],
      "name": "RootNode"
    },
    {
      "children": [
        5
      ],
      "matrix": [
        0.39370077848434448,
        0,
        0,
        0,
        0,
        0.39370077848434448,
        0,
        0,
        0,
        0,
        0.39370077848434448,
        0,
        0,
        -3.5527136788005009e-15,
        1.3877787807814457e-17,
        1
      ],
      "name": "Soloist_SL2Q_Body_low"
    },
    {
      "mesh": 0,
      "name": "Soloist_SL2Q_Body_low_Mat_Soloist_SL2Q_0"
    }
  ],
  "samplers": [
    {
      "magFilter": 9729,
      "minFilter": 9987,
      "wrapS": 10497,
      "wrapT": 10497
    }
  ],
  "scene": 0,
  "scenes": [
    {
      "name": "OSG_Scene",
      "nodes": [
        0
      ]
    }
  ],
  "textures": [
    {
      "sampler": 0,
      "source": 0
    },
    {
      "sampler": 0,
      "source": 1
    },
    {
      "sampler": 0,
      "source": 2
    }
  ]
}

