{
  "accessors": [
    {
      "bufferView": 2,
      "componentType": 5126,
      "count": 3759,
      "max": [
        0.96404200792312622,
        0.4146290123462677,
        -0.037420801818370819
      ],
      "min": [
        -0.96404099464416504,
        0.28856700658798218,
        -0.1351889967918396
      ],
      "type": "VEC3"
    },
    {
      "bufferView": 2,
      "byteOffset": 45108,
      "componentType": 5126,
      "count": 3759,
      "max": [
        0.99999785423278809,
        0.99992811679840088,
        0.69993776082992554
      ],
      "min": [
        -0.99998933076858521,
        -1,
        -0.99996447563171387
      ],
      "type": "VEC3"
    },
    {
      "bufferView": 3,
      "componentType": 5126,
      "count": 3759,
      "max": [
        0.99779140949249268,
        0.97327429056167603,
        0.8022615909576416,
        1
      ],
      "min": [
        -0.99999183416366577,
        -0.99437153339385986,
        -0.95801889896392822,
        1
      ],
      "type": "VEC4"
    },
    {
      "bufferView": 1,
      "componentType": 5126,
      "count": 3759,
      "max": [
        0.99755197763442993,
        0.9099699854850769
      ],
      "min": [
        0.21972699463367462,
        0.20410199463367462
      ],
      "type": "VEC2"
    },
    {
      "bufferView": 0,
      "componentType": 5125,
      "count": 19878,
      "max": [
        3758
      ],
      "min": [
        0
      ],
      "type": "SCALAR"
    },
    {
      "bufferView": 2,
      "byteOffset": 90216,
      "componentType": 5126,
      "count": 9670,
      "max": [
        0.99787300825119019,
        0.43630298972129822,
        0.087332896888256073
      ],
      "min": [
        -0.99787300825119019,
        -0.32900801301002502,
        -0.018944399431347847
      ],
      "type": "VEC3"
    },
    {
      "bufferView": 2,
      "byteOffset": 206256,
      "componentType": 5126,
      "count": 9670,
      "max": [
        1,
        1,
        1
      ],
      "min": [
        -1,
        -1,
        -1
      ],
      "type": "VEC3"
    },
    {
      "bufferView": 3,
      "byteOffset": 60144,
      "componentType": 5126,
      "count": 9670,
      "max": [
        1,
        0.99999690055847168,
        0.99999278783798218,
        1
      ],
      "min": [
        -0.99999892711639404,
        -0.99995136260986328,
        -0.99999946355819702,
        -1
      ],
      "type": "VEC4"
    },
    {
      "bufferView": 1,
      "byteOffset": 30072,
      "componentType": 5126,
      "count": 9670,
      "max": [
        0.9998360276222229,
        0.93770802021026611
      ],
      "min": [
        0,
        0
      ],
      "type": "VEC2"
    },
    {
      "bufferView": 0,
      "byteOffset": 79512,
      "componentType": 5125,
      "count": 46563,
      "max": [
        9669
      ],
      "min": [
        0
      ],
      "type": "SCALAR"
    },
    {
      "bufferView": 2,
      "byteOffset": 322296,
      "componentType": 5126,
      "count": 29053,
      "max": [
        1,
        0.4257659912109375,
        0.13509799540042877
      ],
      "min": [
        -1,
        -0.43630298972129822,
        -0.13488799333572388
      ],
      "type": "VEC3"
    },
    {
      "bufferView": 2,
      "byteOffset": 670932,
      "componentType": 5126,
      "count": 29053,
      "max": [
        1,
        1,
        1
      ],
      "min": [
        -1,
        -1,
        -1
      ],
      "type": "VEC3"
    },
    {
      "bufferView": 3,
      "byteOffset": 214864,
      "componentType": 5126,
      "count": 29053,
      "max": [
        0.99999994039535522,
        0.99999284744262695,
        0.99999642372131348,
        1
      ],
      "min": [
        -0.9999992847442627,
        -0.99986988306045532,
        -0.99999874830245972,
        -1
      ],
      "type": "VEC4"
    },
    {
      "bufferView": 1,
      "byteOffset": 107432,
      "componentType": 5126,
      "count": 29053,
      "max": [
        0.99765801429748535,
        0.85524702072143555
      ],
      "min": [
        0,
        0
      ],
      "type": "VEC2"
    },
    {
      "bufferView": 0,
      "byteOffset": 265764,
      "componentType": 5125,
      "count": 136467,
      "max": [
        29052
      ],
      "min": [
        0
      ],
      "type": "SCALAR"
    }
  ],
  "asset": {
    "extras": {
      "author": "Fahim Jaowad (https://sketchfab.com/fahimjaowad773)",
      "license": "CC-BY-4.0 (http://creativecommons.org/licenses/by/4.0/)",
      "source": "https://sketchfab.com/3d-models/nintendo-switch-lite-89cffc7fc0824ab9b0c746e085e6a567",
      "title": "Nintendo Switch Lite"
    },
    "generator": "Sketchfab-9.24.0",
    "version": "2.0"
  },
  "bufferViews": [
    {
      "buffer": 0,
      "byteLength": 811632,
      "byteOffset": 0,
      "name": "floatBufferViews",
      "target": 34963
    },
    {
      "buffer": 0,
      "byteLength": 339856,
      "byteOffset": 811632,
      "byteStride": 8,
      "name": "floatBufferViews",
      "target": 34962
    },
    {
      "buffer": 0,
      "byteLength": 1019568,
      "byteOffset": 1151488,
      "byteStride": 12,
      "name": "floatBufferViews",
      "target": 34962
    },
    {
      "buffer": 0,
      "byteLength": 679712,
      "byteOffset": 2171056,
      "byteStride": 16,
      "name": "floatBufferViews",
      "target": 34962
    }
  ],
  "buffers": [
    {
      "byteLength": 2850768,
      "uri": "scene.bin"
    }
  ],
  "images": [
    {
      "uri": "textures/DefaultMaterial_baseColor.jpeg"
    },
    {
      "uri": "textures/DefaultMaterial_metallicRoughness.png"
    },
    {
      "uri": "textures/DefaultMaterial_emissive.jpeg"
    },
    {
      "uri": "textures/DefaultMaterial_normal.png"
    }
  ],
  "materials": [
    {
      "doubleSided": true,
      "emissiveFactor": [
        1,
        1,
        1
      ],
      "emissiveTexture": {
        "index": 2,
        "texCoord": 0
      },
      "name": "DefaultMaterial",
      "normalTexture": {
        "index": 3,
        "scale": 1,
        "texCoord": 0
      },
      "occlusionTexture": {
        "index": 1,
        "strength": 1,
        "texCoord": 0
      },
      "pbrMetallicRoughness": {
        "baseColorFactor": [
          1,
          1,
          1,
          1
        ],
        "baseColorTexture": {
          "index": 0,
          "texCoord": 0
        },
        "metallicFactor": 1,
        "metallicRoughnessTexture": {
          "index": 1,
          "texCoord": 0
        },
        "roughnessFactor": 1
      }
    }
  ],
  "meshes": [
    {
      "name": "defaultMaterial",
      "primitives": [
        {
          "attributes": {
            "NORMAL": 1,
            "POSITION": 0,
            "TANGENT": 2,
            "TEXCOORD_0": 3
          },
          "indices": 4,
          "material": 0,
          "mode": 4
        }
      ]
    },
    {
      "name": "defaultMaterial",
      "primitives": [
        {
          "attributes": {
            "NORMAL": 6,
            "POSITION": 5,
            "TANGENT": 7,
            "TEXCOORD_0": 8
          },
          "indices": 9,
          "material": 0,
          "mode": 4
        }
      ]
    },
    {
      "name": "defaultMaterial",
      "primitives": [
        {
          "attributes": {
            "NORMAL": 11,
            "POSITION": 10,
            "TANGENT": 12,
            "TEXCOORD_0": 13
          },
          "indices": 14,
          "material": 0,
          "mode": 4
        }
      ]
    }
  ],
  "nodes": [
    {
      "children": [
        1
      ],
      "name": "RootNode (gltf orientation matrix)",
      "rotation": [
        -0.70710678118654746,
        -0,
        -0,
        0.70710678118654757
      ]
    },
    {
      "children": [
        2
      ],
      "name": "RootNode (model correction matrix)"
    },
    {
      "children": [
        3,
        5,
        7
      ],
      "matrix": [
        1,
        0,
        0,
        0,
        0,
        -4.3711390063094768e-08,
        0.999999999999999,
        0,
        0,
        -0.999999999999999,
        -4.3711390063094768e-08,
        0,
        0,
        0,
        0,
        1
      ],
      "name": "Collada visual scene group"
    },
    {
      "children": [
        4
      ],
      "name": "g"
    },
    {
      "mesh": 0,
      "name": "defaultMaterial"
    },
    {
      "children": [
        6
      ],
      "name": "g"
    },
    {
      "mesh": 1,
      "name": "defaultMaterial"
    },
    {
      "children": [
        8
      ],
      "name": "g"
    },
    {
      "mesh": 2,
      "name": "defaultMaterial"
    }
  ],
  "samplers": [
    {
      "magFilter": 9729,
      "minFilter": 9987,
      "wrapS": 10497,
      "wrapT": 10497
    }
  ],
  "scene": 0,
  "scenes": [
    {
      "name": "OSG_Scene",
      "nodes": [
        0
      ]
    }
  ],
  "textures": [
    {
      "sampler": 0,
      "source": 0
    },
    {
      "sampler": 0,
      "source": 1
    },
    {
      "sampler": 0,
      "source": 2
    },
    {
      "sampler": 0,
      "source": 3
    }
  ]
}

